<svg width="135" height="64" viewBox="0 0 135 64" fill="none" xmlns="http://www.w3.org/2000/svg">
<rect y="5" width="100" height="54" fill="#1EA1F3"/>
<path d="M134.949 31.9631L99.6711 59.6993L99.5836 4.33759L134.949 31.9631Z" fill="#1EA1F3"/>
<ellipse cx="103.781" cy="30.9031" rx="4.08757" ry="3.85562" fill="white"/>
<path d="M15.0774 42V23.0909H21.8175C23.2824 23.0909 24.4981 23.3433 25.4645 23.848C26.437 24.3527 27.1634 25.0514 27.6435 25.9439C28.1236 26.8303 28.3636 27.8551 28.3636 29.0185C28.3636 30.1757 28.1205 31.1944 27.6342 32.0746C27.1541 32.9486 26.4278 33.6288 25.4553 34.1151C24.4889 34.6013 23.2732 34.8445 21.8082 34.8445H16.7024V32.3885H21.5497C22.473 32.3885 23.224 32.2562 23.8026 31.9915C24.3873 31.7268 24.8151 31.3421 25.0859 30.8374C25.3568 30.3326 25.4922 29.7263 25.4922 29.0185C25.4922 28.3044 25.3537 27.6858 25.0767 27.1626C24.8059 26.6394 24.3781 26.2393 23.7933 25.9624C23.2147 25.6792 22.4545 25.5376 21.5128 25.5376H17.9304V42H15.0774ZM24.4119 33.4688L29.0838 42H25.8338L21.2543 33.4688H24.4119ZM37.5481 42.2862C36.1509 42.2862 34.9475 41.9877 33.938 41.3906C32.9347 40.7874 32.1592 39.9411 31.6113 38.8516C31.0697 37.7559 30.7988 36.4725 30.7988 35.0014C30.7988 33.5488 31.0697 32.2685 31.6113 31.1605C32.1592 30.0526 32.9224 29.1877 33.9011 28.5661C34.8859 27.9444 36.037 27.6335 37.3542 27.6335C38.1544 27.6335 38.93 27.7659 39.6809 28.0305C40.4319 28.2952 41.1059 28.7107 41.7029 29.277C42.3 29.8433 42.7709 30.5788 43.1156 31.4837C43.4603 32.3823 43.6326 33.4749 43.6326 34.7614V35.7401H32.3592V33.6719H40.9274C40.9274 32.9455 40.7797 32.3023 40.4842 31.7422C40.1887 31.1759 39.7733 30.7296 39.2377 30.4034C38.7084 30.0772 38.0867 29.9141 37.3727 29.9141C36.5971 29.9141 35.92 30.1049 35.3414 30.4865C34.769 30.862 34.3258 31.3544 34.0119 31.9638C33.7041 32.567 33.5502 33.2225 33.5502 33.9304V35.5462C33.5502 36.4941 33.7164 37.3004 34.0488 37.9652C34.3874 38.63 34.8583 39.1378 35.4615 39.4886C36.0647 39.8333 36.7695 40.0057 37.5758 40.0057C38.099 40.0057 38.5761 39.9318 39.0069 39.7841C39.4378 39.6302 39.8102 39.4025 40.1241 39.1009C40.438 38.7992 40.6781 38.4268 40.8443 37.9837L43.4572 38.4545C43.2479 39.224 42.8725 39.898 42.3308 40.4766C41.7953 41.049 41.1213 41.4953 40.3088 41.8153C39.5024 42.1293 38.5822 42.2862 37.5481 42.2862ZM52.0046 42.277C50.8597 42.277 49.8379 41.9846 48.9393 41.3999C48.0468 40.8089 47.3451 39.9687 46.8342 38.8793C46.3294 37.7836 46.0771 36.4695 46.0771 34.9368C46.0771 33.4041 46.3325 32.093 46.8434 31.0036C47.3604 29.9141 48.0683 29.08 48.967 28.5014C49.8656 27.9228 50.8844 27.6335 52.0231 27.6335C52.9033 27.6335 53.6112 27.7812 54.1467 28.0767C54.6883 28.366 55.1069 28.7045 55.4023 29.0923C55.704 29.4801 55.9379 29.8217 56.104 30.1172H56.2702V23.0909H59.0309V42H56.3349V39.7933H56.104C55.9379 40.0949 55.6978 40.4396 55.3839 40.8274C55.0761 41.2152 54.6514 41.5537 54.1097 41.843C53.5681 42.1323 52.8664 42.277 52.0046 42.277ZM52.614 39.9226C53.408 39.9226 54.079 39.7133 54.6268 39.2947C55.1808 38.87 55.5993 38.2822 55.8825 37.5312C56.1718 36.7803 56.3164 35.9062 56.3164 34.9091C56.3164 33.9242 56.1748 33.0625 55.8917 32.3239C55.6085 31.5852 55.1931 31.0097 54.6452 30.5973C54.0974 30.1849 53.4203 29.9787 52.614 29.9787C51.783 29.9787 51.0906 30.1941 50.5366 30.625C49.9826 31.0559 49.564 31.6437 49.2809 32.3885C49.0039 33.1333 48.8654 33.9735 48.8654 34.9091C48.8654 35.857 49.007 36.7095 49.2901 37.4666C49.5733 38.2237 49.9918 38.8239 50.5458 39.267C51.1059 39.7041 51.7953 39.9226 52.614 39.9226ZM71.9547 36.1186V27.8182H74.7246V42H72.0101V39.544H71.8624C71.5362 40.3011 71.013 40.9321 70.2928 41.4368C69.5788 41.9354 68.6893 42.1847 67.6245 42.1847C66.7135 42.1847 65.9071 41.9846 65.2054 41.5845C64.5099 41.1783 63.9621 40.5781 63.562 39.7841C63.168 38.9901 62.9711 38.0083 62.9711 36.8388V27.8182H65.7317V36.5064C65.7317 37.4728 65.9995 38.2422 66.535 38.8146C67.0705 39.3871 67.766 39.6733 68.6216 39.6733C69.1387 39.6733 69.6526 39.544 70.1635 39.2855C70.6806 39.027 71.1084 38.6361 71.4469 38.1129C71.7916 37.5897 71.9609 36.925 71.9547 36.1186ZM80.6129 27.8182L83.7429 33.3395L86.9006 27.8182H89.9197L85.4972 34.9091L89.9567 42H86.9375L83.7429 36.7003L80.5575 42H77.5291L81.9425 34.9091L77.5845 27.8182H80.6129Z" fill="white"/>
</svg>
